# AST/ASF file generated using VICON BodyLanguage
# -----------------------------------------------
:version 1.10
:name VICON
:units
  mass 1.0
  length 0.45
  angle deg
:documentation
   .ast/.asf automatically generated from VICON data using
   VICON BodyBuilder and BodyLanguage model FoxedUp or BRILLIANT.MOD
:root
   order TX TY TZ RX RY RZ
   axis XYZ
   position 0 0 0  
   orientation 0 0 0 
:bonedata
  begin
     id 1 
     name lhipjoint
     direction 0.603808 -0.713975 0.35448 
     length 2.2025 
     axis 0 0 0  XYZ
  end
  begin
     id 2 
     name lfemur
     direction 0.34202 -0.939693 0  
     length 6.55877  
     axis 0 0 20  XYZ
    dof rx ry rz
    limits (-160.0 20.0)
           (-70.0 70.0)
           (-60.0 70.0)
  end
  begin
     id 3 
     name ltibia
     direction 0.34202 -0.939693 0   
     length 6.80302   
     axis 0 0 20   XYZ
    dof rx
    limits (-10.0 170.0)
  end
  begin
     id 4 
     name lfoot
     direction 0.091848 -0.25235 0.963267   
     length 2.03446   
     axis -90 7.62852e-016 20   XYZ
    dof rx rz
    limits (-45.0 90.0)
           (-70.0 20.0)
  end
  begin
     id 5 
     name ltoes
     direction 1.53608e-011 -4.21925e-011 1   
     length 1.02033   
     axis -90 7.62852e-016 20   XYZ
    dof rx
    limits (-90.0 20.0)
  end
  begin
     id 6 
     name rhipjoint
     direction -0.587285 -0.724947 0.359928   
     length 2.16916  
     axis 0 0 0  XYZ 
  end
  begin
     id 7 
     name rfemur
     direction -0.34202 -0.939693 0   
     length 6.43173   
     axis 0 0 -20   XYZ
    dof rx ry rz
    limits (-160.0 20.0)
           (-70.0 70.0)
           (-70.0 60.0)
  end
  begin
     id 8 
     name rtibia
     direction -0.34202 -0.939693 0   
     length 6.70662   
     axis 0 0 -20   XYZ
    dof rx
    limits (-10.0 170.0)
 end
 begin
     id 9 
     name rfoot
     direction -0.11854 -0.325686 0.938018   
     length 2.0773  
     axis -90 -7.62852e-016 -20   XYZ
    dof rx rz
    limits (-45.0 90.0)
           (-20.0 70.0)
  end
  begin
     id 10 
     name rtoes
     direction -1.53547e-011 -4.21838e-011 1   
     length 1.03267   
     axis -90 -7.62852e-016 -20   XYZ
    dof rx
    limits (-90.0 20.0)
  end
  begin
     id 11 
     name lowerback
     direction -0.0286554 0.999539 0.0100613   
     length 2.08751   
     axis 0 0 0   XYZ
    dof rx ry rz
    limits (-20.0 45.0)
           (-30.0 30.0)
           (-30.0 30.0)
  end
  begin
     id 12 
     name upperback
     direction 0.0227093 0.999705 -0.00860929   
     length 2.08517   
     axis 0 0 0   XYZ
    dof rx ry rz
    limits (-20.0 45.0)
           (-30.0 30.0)
           (-30.0 30.0)
  end
  begin
     id 13 
     name thorax
     direction 0.0351627 0.999285 -0.013892   
     length 2.08412   
     axis 0 0 0   XYZ
    dof rx ry rz
    limits (-20.0 45.0)
           (-30.0 30.0)
           (-30.0 30.0)
  end
  begin
     id 14 
     name lowerneck
     direction -0.0696283 0.997344 0.0213922   
     length 1.44164   
     axis 0 0 0   XYZ
    dof rx ry rz
    limits (-20.0 45.0)
           (-30.0 30.0)
           (-30.0 30.0)
  end
  begin
     id 15 
     name upperneck
     direction 0.0531 0.990412 -0.127531   
     length 1.45022   
     axis 0 0 0   XYZ
    dof rx ry rz
    limits (-20.0 45.0)
           (-30.0 30.0)
           (-30.0 30.0)
  end
  begin
     id 16
     name head
     direction 0.0188154 0.998548 -0.0504727  
     length 1.45845  
     axis 0 0 0   XYZ
    dof rx ry rz
    limits (-20.0 45.0)
           (-30.0 30.0)
           (-30.0 30.0)
  end
  begin
     id 17 
     name lclavicle
     direction 0.961559 0.260051 0.088188  
     length 2.86057  
     axis 0 0 0   XYZ
    dof ry rz
    limits (-20.0 10.0)
           (0.0 20.0)
  end
  begin
     id 18 
     name lhumerus
     direction 1 -4.48959e-011 2.88185e-027   
     length 4.36901   
     axis 180 -30 -90   XYZ
    dof rx ry rz
    limits (-60.0 90.0)
           (-90.0 90.0)
           (-90.0 90.0)
  end
  begin
     id 19
     name lradius
     direction 1 -4.48965e-011 -3.92618e-028   
     length 3.21737   
     axis 180 -30 -90   XYZ
    dof rx
    limits (-10.0 170.0)
  end
  begin
     id 20
     name lwrist
     direction 1 -4.49037e-011 2.57246e-027   
     length 1.60869   
     axis -1.61769e-015 90 90   XYZ
    dof ry
    limits (-180.0 0.0)
 end
  begin
     id 21 
     name lhand
     direction 1 -4.48807e-011 5.12958e-027   
     length 0.564313   
     axis -3.27988e-015 90 90   XYZ
    dof rx rz
    limits (-90.0 90.0)
           (-45.0 45.0)
  end
  begin
     id 22 
     name lfingers
     direction 1 -4.48879e-011 1.02687e-026   
     length 0.454963   
     axis -6.5598e-015 90 90   XYZ
    dof rx
    limits (0.0 90.0)
  end
  begin
     id 23
     name lthumb
     direction 0.707107 -6.3475e-011 0.707107   
     length 0.653239   
     axis -90 45 2.19363e-014   XYZ
    dof rx rz
    limits (-45.0 45.0)
           (-45.0 45.0)
  end
  begin
     id 24 
     name rclavicle
     direction -0.954677 0.253915 0.155304   
     length 3.11497  
     axis 0 0 0   XYZ 
    dof ry rz
    limits (-10.0 20.0)
           (-20.0 0.0)
  end
  begin
     id 25 
     name rhumerus
     direction -1 -4.48958e-011 -8.20169e-028  
     length 4.34118   
     axis 180 30 90   XYZ
    dof rx ry rz
    limits (-90.0 60.0)
           (-90.0 90.0)
           (-90.0 90.0)
  end
  begin
     id 26 
     name rradius
     direction -1 -4.48978e-011 1.5676e-027   
     length 3.09531   
     axis 180 30 90   XYZ
    dof rx
    limits (-10.0 170.0)
  end
  begin
     id 27 
     name rwrist
     direction -1 -4.49001e-011 2.57123e-027   
     length 1.54765   
     axis -1.61769e-015 -90 -90   XYZ
    dof ry
    limits (-180.0 0.0)
  end
  begin
     id 28
     name rhand
     direction -1 -4.48847e-011 5.13225e-027   
     length 0.597446   
     axis -3.27988e-015 -90 -90   XYZ
    dof rx rz
    limits (-90.0 90.0)
           (-45.0 45.0)
  end
  begin
     id 29
     name rfingers
     direction -1 -4.49094e-011 1.02974e-026   
     length 0.481677   
     axis -6.5598e-015 -90 -90   XYZ
    dof rx
    limits (0.0 90.0)
  end
  begin
     id 30
     name rthumb
     direction -0.707107 -6.34859e-011 0.707107   
     length 0.691594   
     axis -90 -45 -2.19363e-014   XYZ
    dof rx rz
    limits (-45.0 45.0)
           (-45.0 45.0)
  end
:hierarchy
  begin
    root lhipjoint rhipjoint lowerback
    lhipjoint lfemur
    lfemur ltibia
    ltibia lfoot
    lfoot ltoes
    rhipjoint rfemur
    rfemur rtibia
    rtibia rfoot
    rfoot rtoes
    lowerback upperback
    upperback thorax
    thorax lowerneck lclavicle rclavicle
    lowerneck upperneck
    upperneck head
    lclavicle lhumerus
    lhumerus lradius
    lradius lwrist
    lwrist lhand lthumb
    lhand lfingers
    rclavicle rhumerus
    rhumerus rradius
    rradius rwrist
    rwrist rhand rthumb
    rhand rfingers
  end

#!OML:ASF I:\Acrobat_Osman\acrobat\cartwheel_test 2\Patient 1\Session 1\acrobat.ASF
:FULLY-SPECIFIED
:DEGREES
892
root 10.3708 14.882 -26.4576 555.006 320.8 -905.971
lowerback 1.30591 -6.72164 -4.63285
upperback 2.06281 -9.03743 0.963333
thorax 2.27125 -4.63005 3.41756
lowerneck -8.51036 14.67 0.757043
upperneck 7.49332 20.4584 -9.66322
head 4.72507 9.50711 -1.57412
rclavicle -4.82363e-014 -5.93248e-015
rhumerus -76.1001 -25.3536 358.391
rradius 27.8978
rwrist -364.574
rhand -37.404 35.7808
rfingers 7.12502
rthumb -10.4644 6.06127
lclavicle -4.82363e-014 -5.93248e-015
lhumerus -2.7988 -8.58579 55.8523
lradius 58.6287
lwrist 14.5378
lhand -23.7929 37.2077
lfingers 7.12502
lthumb 2.67732 67.1707
rfemur -41.8214 10.4592 4.41427
rtibia 44.5896
rfoot -15.376 -1.43971
rtoes -29.3883
lfemur -3.42367 29.2824 -6.82454
ltibia 48.2087
lfoot -4.02187 17.8317
ltoes -26.6077
893
root 10.4198 14.8596 -26.4077 554.568 318.56 -905.315
lowerback 1.63698 -6.75851 -4.29286
upperback 1.7358 -9.09634 1.29211
thorax 1.75497 -4.63792 3.63741
lowerneck -2.64201 14.8991 4.20637
upperneck 3.16394 20.3112 -13.6331
head 3.21985 9.76943 -3.72493
rclavicle -3.35449e-015 1.10077e-014
rhumerus -77.2221 -24.1406 358.415
rradius 27.4431
rwrist -364.826
rhand -37.9754 36.2224
rfingers 7.12502
rthumb -11.0156 6.53146
lclavicle -3.35449e-015 1.10077e-014
lhumerus -7.21523 -5.50091 54.7456
lradius 59.4959
lwrist 16.6086
lhand -26.6412 41.86
lfingers 7.12502
lthumb -0.0735822 71.8397
rfemur -41.4337 9.46707 5.24473
rtibia 44.7489
rfoot -15.4301 -2.39944
rtoes -30.4713
lfemur -5.6925 31.3214 -6.78812
ltibia 49.9487
lfoot -7.24699 20.7878
ltoes -23.9513
894
root 10.4623 14.8677 -26.3603 554.189 315.979 -904.773
lowerback 1.62588 -6.65232 -4.34368
upperback 1.8219 -8.96418 1.7539
thorax 1.921 -4.58631 4.12799
lowerneck -3.57829 14.8014 4.10423
upperneck 3.80519 20.238 -13.1458
head 3.49467 9.68387 -3.48554
rclavicle 5.44918e-014 -3.97569e-016
rhumerus -77.9657 -24.1145 358.208
rradius 27.4627
rwrist -364.744
rhand -38.5556 35.511
rfingers 7.12502
rthumb -11.5751 5.85065
lclavicle 5.44918e-014 -3.97569e-016
lhumerus -10.7667 -2.42496 53.3652
lradius 60.2963
lwrist 18.5748
lhand -25.6054 38.417
lfingers 7.12502
lthumb 0.926888 68.3947
rfemur -40.7291 8.34961 5.93216
rtibia 44.616
rfoot -15.6213 -3.4543
rtoes -31.5662
lfemur -8.55682 32.2603 -7.0499
ltibia 51.8235
lfoot -11.2569 23.2369
ltoes -19.1822
895
root 10.5051 14.8689 -26.3135 553.708 313.01 -904.105
lowerback 1.43492 -6.41062 -4.49031
upperback 2.03604 -8.65424 2.28772
thorax 2.32361 -4.46064 4.72096
lowerneck -4.89318 14.6125 3.84934
upperneck 4.70863 20.0639 -12.5208
head 3.87371 9.52649 -3.16066
rclavicle -6.76365e-014 1.19271e-014
rhumerus -78.5293 -24.6945 357.918
rradius 27.4857
rwrist -364.634
rhand -38.5282 36.3238
rfingers 7.12502
rthumb -11.5487 6.66195
lclavicle -6.76365e-014 1.19271e-014
lhumerus -13.8142 0.620419 51.5363
lradius 60.6776
lwrist 19.0763
lhand -26.6305 42.6516
lfingers 7.12502
lthumb -0.0631907 72.6313
rfemur -39.8903 7.11473 6.65288
rtibia 44.3602
rfoot -15.7074 -4.52897
rtoes -30.6411
lfemur -11.7658 33.167 -7.33273
ltibia 53.7329
lfoot -12.8602 25.3159
ltoes -19.7701
896
root 10.5411 14.8907 -26.2743 552.86 309.601 -903.11
lowerback 1.67377 -6.04641 -4.26883
upperback 1.85942 -8.18175 2.67613
thorax 1.97765 -4.21558 5.05898
lowerneck -7.52232 14.0662 2.59405
upperneck 6.81336 19.4754 -10.3687
head 4.55053 9.12122 -2.18642
rclavicle -8.94034e-014 4.57205e-015
rhumerus -78.7876 -24.6124 356.794
rradius 27.7902
rwrist -364.961
rhand -38.423 36.175
rfingers 7.12502
rthumb -11.4473 6.50754
lclavicle -8.94034e-014 4.57205e-015
lhumerus -17.3295 2.15729 49.1695
lradius 61.4154
lwrist 20.7947
lhand -28.0615 44.2978
lfingers 7.12502
lthumb -1.4453 74.2727
rfemur -38.6649 5.8813 7.57577
rtibia 43.96
rfoot -15.8382 -6.02566
rtoes -28.6774
lfemur -14.9255 33.4196 -7.25399
ltibia 55.5177
lfoot -15.0659 26.623
ltoes -16.9559
897
root 10.5711 14.8987 -26.2421 551.592 305.769 -901.815
lowerback 1.96515 -5.62601 -4.02056
upperback 1.6819 -7.6322 3.01102
thorax 1.57765 -3.92927 5.33038
lowerneck -7.1011 13.89 3.91191
upperneck 6.8783 19.1845 -10.9088
head 4.66213 9.00122 -2.56076
rclavicle 1.18575e-013 -5.30755e-014
rhumerus -78.7496 -24.7044 355.704
rradius 27.858
rwrist -364.725
rhand -38.3598 34.8027
rfingers 7.12502
rthumb -11.3862 5.13189
lclavicle 1.18575e-013 -5.30755e-014
lhumerus -20.5237 3.45972 46.2986
lradius 61.9742
lwrist 22.5713
lhand -29.4595 46.5791
lfingers 7.12502
lthumb -2.79545 76.5405
rfemur -37.1716 4.74817 8.5783
rtibia 43.6024
rfoot -16.2773 -8.15622
rtoes -27.1557
lfemur -18.1371 33.8181 -7.21195
ltibia 57.1012
lfoot -14.1468 28.9712
ltoes -21.6156
898
root 10.5943 14.8728 -26.1987 549.619 301.389 -899.85
lowerback 2.12108 -5.22397 -3.63595
upperback 1.66289 -7.10866 3.4423
thorax 1.41433 -3.66778 5.59476
lowerneck -6.12765 13.6906 4.72835
upperneck 5.88162 18.8285 -11.6201
head 4.31944 8.89512 -3.00474
rclavicle 1.60022e-014 5.56597e-015
rhumerus -77.9977 -25.1235 354.113
rradius 28.183
rwrist -365.231
rhand -37.0032 40.0072
rfingers 7.12502
rthumb -10.0778 10.2685
lclavicle 1.60022e-014 5.56597e-015
lhumerus -22.7628 5.27479 43.2056
lradius 61.5924
lwrist 24.6338
lhand -30.5496 46.6614
lfingers 7.12502
lthumb -3.8482 76.6064
rfemur -35.4718 3.36658 9.79752
rtibia 43.2187
rfoot -16.9413 -10.5553
rtoes -26.3861
lfemur -21.2848 33.2471 -6.7958
ltibia 58.4546
lfoot -15.2777 30.2935
ltoes -21.0189
899
root 10.6012 14.8403 -26.1408 546.946 296.597 -897.227
lowerback 2.16844 -4.75748 -3.0497
upperback 1.63415 -6.49269 3.86979
thorax 1.26504 -3.35758 5.73072
lowerneck -6.52058 13.2423 4.60496
upperneck 5.97872 18.2187 -11.3703
head 4.32823 8.58986 -2.94626
rclavicle 1.11816e-013 3.57812e-015
rhumerus -76.5156 -25.2273 351.372
rradius 28.8378
rwrist -365.653
rhand -38.0324 39.5784
rfingers 7.12502
rthumb -11.0705 9.89035
lclavicle 1.11816e-013 3.57812e-015
lhumerus -24.5283 7.35617 40.034
lradius 61.174
lwrist 26.2489
lhand -28.8124 43.0184
lfingers 7.12502
lthumb -2.17053 72.9871
rfemur -33.5723 1.7629 10.9505
rtibia 42.7795
rfoot -17.5551 -13.0463
rtoes -27.0054
lfemur -24.48 32.6909 -6.49309
ltibia 59.6893
lfoot -18.0051 30.1705
ltoes -17.5943
900
root 10.5818 14.8254 -26.0758 543.249 291.76 -893.67
lowerback 2.00325 -4.02935 -2.30863
upperback 1.56633 -5.51763 4.21864
thorax 1.13049 -2.86243 5.68048
lowerneck -7.1064 12.5533 4.09455
upperneck 6.47033 17.3289 -10.89
head 4.41548 8.12559 -2.77135
rclavicle 9.54166e-015 1.35174e-014
rhumerus -74.9237 -24.7208 348.703
rradius 29.7907
rwrist -366.24
rhand -39.085 35.2664
rfingers 7.12502
rthumb -12.0856 5.63542
lclavicle 9.54166e-015 1.35174e-014
lhumerus -25.845 8.89817 36.9662
lradius 61.5152
lwrist 28.2752
lhand -26.8267 42.3059
lfingers 7.12502
lthumb -0.252744 72.2855
rfemur -31.4681 0.264181 11.914
rtibia 42.3539
rfoot -18.0686 -15.6196
rtoes -28.4541
lfemur -27.7918 33.2286 -6.86046
ltibia 61.1437
lfoot -20.4659 29.0887
ltoes -14.2557
901
root 10.544 14.8271 -25.9995 537.571 286.673 -888.198
lowerback 1.70834 -3.23824 -1.71791
upperback 1.48236 -4.46174 4.57256
thorax 1.06847 -2.3297 5.70818
lowerneck -7.51641 11.8956 3.25831
upperneck 7.04844 16.4802 -9.90819
head 4.44087 7.70686 -2.40988
rclavicle 3.63776e-014 -1.66979e-014
rhumerus -72.9964 -23.883 346.311
rradius 30.4779
rwrist -366.839
rhand -39.0245 39.5176
rfingers 7.12502
rthumb -12.0273 9.8832
lclavicle 3.63776e-014 -1.66979e-014
lhumerus -26.5333 10.2459 34.1117
lradius 62.0414
lwrist 31.5346
lhand -26.1938 42.8986
lfingers 7.12502
lthumb 0.358534 72.878
rfemur -29.0854 -1.40371 12.762
rtibia 41.7466
rfoot -18.7851 -18.1967
rtoes -28.6351
lfemur -31.0234 32.6146 -7.05012
ltibia 62.4122
lfoot -23.5253 27.1333
ltoes -5.37803
